<svg xmlns="http://www.w3.org/2000/svg" xmlns:xlink="http://www.w3.org/1999/xlink" version="1.1" x="0px" y="0px" viewBox="0 0 300 300" style="enable-background:new 0 0 300 300;" xmlSpace="preserve">
    <g>
        <g>
            <path className="st0" d="M149.5,300.5c-2.4,0-4.8-0.6-6.9-1.8L24.5,230.3c-4.2-2.4-6.8-7-6.8-11.9l0.1-136.6c0-4.9,2.6-9.4,6.8-11.8    L142.9,1.8c4.2-2.4,9.5-2.4,13.7,0l118.2,68.4c4.2,2.4,6.8,7,6.8,11.9l-0.1,136.5c0,4.9-2.6,9.4-6.9,11.8l-118.3,68.2    C154.3,299.8,151.9,300.5,149.5,300.5z M149.8,3.2c-1.8,0-3.6,0.5-5.2,1.4L26.2,72.8c-3.2,1.9-5.2,5.3-5.2,9l-0.1,136.6    c0,3.7,2,7.2,5.2,9l118.2,68.4c3.2,1.8,7.3,1.8,10.4,0l118.3-68.2c3.2-1.9,5.2-5.3,5.2-9l0.1-136.5c0-3.7-2-7.2-5.2-9L155,4.6    C153.4,3.7,151.6,3.2,149.8,3.2z" />
        </g>
        <g>
            <polygon className="st0" points="144.5,297.7 154.8,297.7 150,223.2   " />
        </g>
        <g>
            <polygon className="st0" points="23.5,72.3 18.8,81.3 77.5,106.5   " />
        </g>
        <g>
            <polygon className="st0" points="275.7,72.3 280.3,81.3 221.7,106.5   " />
        </g>
    </g>
</svg>
